<svg xmlns="http://www.w3.org/2000/svg" width="124" height="124" viewBox="0 0 900 900"><g fill="currentColor"><path d="M446.3 74.7c-.3 1-4.6 8.5-9.5 16.6-4.8 8.2-8.8 15-8.8 15.2 0 .2-1.2 2.1-2.6 4.2-1.4 2.1-3 4.7-3.5 5.8-.5 1.1-1.8 3.3-2.9 5-1.1 1.6-2.3 3.7-2.7 4.5-.4.8-6.6 11.4-13.8 23.5-7.2 12.1-13.4 22.7-13.8 23.5-.4.8-1.6 2.8-2.7 4.5-1.1 1.6-2.4 3.9-3 5-.6 1.1-1.9 3.3-3 5-1.1 1.6-2.3 3.7-2.7 4.5-.7 1.6-29.6 50.5-31.3 53-.6.8-1.4 2.4-1.9 3.5s-2.1 3.7-3.5 5.8c-1.4 2.1-2.6 4-2.6 4.2 0 .2-4.6 8.2-10.3 17.7-5.7 9.6-10.6 18-11 18.8-.4.8-1.6 2.8-2.7 4.5-1.1 1.6-2.4 3.9-3 5-.6 1.1-1.9 3.3-2.9 5-1.1 1.6-2.9 4.8-4.1 7-1.2 2.2-3.5 5.9-5.1 8.3-1.6 2.4-2.9 4.5-2.9 4.6 0 .2-3.4 6.1-7.5 13.1-4.1 6.9-7.5 12.8-7.5 13 0 .2-1.2 2.1-2.6 4.2-1.4 2.1-3 4.7-3.5 5.8-.5 1.1-1.8 3.3-2.9 5-1.1 1.6-2.4 3.9-3 5-.5 1.1-1.4 2.7-2 3.5-1.8 2.7-22 37.2-22 37.6 0 .2-1.2 2-2.6 4.1-1.4 2.1-3 4.7-3.5 5.8-.5 1.1-1.8 3.3-2.9 5-1.1 1.6-2.4 3.9-3 5-.5 1.1-1.4 2.7-2 3.5-.5.8-7.1 11.8-14.5 24.5-7.4 12.6-14 23.7-14.5 24.5-.6.8-1.5 2.4-2 3.5-.6 1.1-1.9 3.3-3 5-1.1 1.6-2.3 3.7-2.7 4.5-.4.8-5.3 9.3-11 18.8-5.7 9.4-10.3 17.4-10.3 17.7 0 .2-1.3 2.3-2.9 4.7-1.6 2.4-3.9 6.1-5 8.3-1.2 2.2-2.6 4.7-3.2 5.5-2.2 3.5-30.6 51.6-31.2 53-.4.8-1.6 2.8-2.7 4.5-1.1 1.6-2.4 3.9-3 5-.6 1.1-1.9 3.3-3 5-1.1 1.6-2.4 3.9-2.9 5s-2.1 3.7-3.5 5.8c-1.4 2.1-2.6 4-2.6 4.2 0 .3-20.2 34.8-22 37.5-.6.8-1.4 2.4-1.9 3.5s-2.1 3.7-3.5 5.8c-1.4 2.1-2.6 3.9-2.6 4.1 0 .2-5.3 9.3-11.8 20.3-6.5 10.9-12.1 20.5-12.5 21.3-.4.8-1.6 2.8-2.7 4.5-1.1 1.6-2.4 3.9-3 5-.6 1.1-1.9 3.3-3 5-1.1 1.6-2.4 3.9-2.9 5s-2.1 3.7-3.5 5.8c-1.4 2.1-2.6 4-2.6 4.2 0 .4-20.1 34.6-22 37.5-.6.8-1.5 2.4-2 3.5-.6 1.1-1.9 3.3-3 5-1.1 1.6-2.3 3.7-2.7 4.5-.4.8-3.1 5.5-6 10.3-2.9 4.8-5.3 9.4-5.3 10.2 0 1.3 55.1 1.5 446.9 1.5 245.8 0 447.6-.3 448.5-.6 2.1-.8 2-3.5-.1-6.5-2.3-3.1-4.1-6-5-7.9-.4-.8-5.3-9.2-10.8-18.5-5.6-9.4-10.4-17.7-10.8-18.5-.4-.8-1.6-2.9-2.7-4.5-1.1-1.7-2.4-3.9-3-5-.6-1.1-1.9-3.4-3-5-1.1-1.7-2.3-3.7-2.7-4.5-.4-.8-7.3-12.5-15.3-26s-14.9-25.2-15.3-26c-.4-.8-1.6-2.9-2.7-4.5-1.1-1.7-2.3-3.7-2.7-4.5-.4-.8-6-10.4-12.5-21.2-6.5-10.9-11.8-20-11.8-20.3 0-.2-1.2-2.1-2.6-4.2-1.4-2.1-3-4.7-3.5-5.8-.5-1.1-1.8-3.4-2.9-5-1.1-1.7-2.3-3.7-2.7-4.5-.8-1.6-29.7-50.6-31.3-53-.6-.8-1.5-2.4-2-3.5-.6-1.1-1.9-3.4-3-5-1.1-1.7-2.3-3.6-2.7-4.4-.3-.8-6.6-11.4-13.8-23.5-7.2-12.2-13.4-22.8-13.8-23.6-.4-.8-1.6-2.9-2.7-4.5-1.1-1.7-2.4-3.9-2.9-5s-2.1-3.7-3.5-5.8c-1.4-2.1-2.6-3.9-2.6-4.1 0-.2-5.3-9.3-11.8-20.3-6.5-10.9-12.1-20.5-12.5-21.3-.4-.8-1.6-2.9-2.7-4.5-1.1-1.7-2.4-3.9-3-5-.6-1.1-2-3.6-3.1-5.5-1.2-1.9-7.9-13.2-14.9-25s-13.7-23.1-14.9-25c-1.1-1.9-2.5-4.4-3.1-5.5-.6-1.1-1.9-3.4-3-5-1.1-1.7-2.3-3.7-2.7-4.5-.4-.8-5.2-9.1-10.8-18.5-5.5-9.3-10.4-17.7-10.8-18.5-.9-1.7-2.1-3.7-5.8-9.5-1.4-2.2-2.9-4.7-3.2-5.5-.4-.8-1.6-2.9-2.7-4.5-1.1-1.7-2.3-3.7-2.7-4.5-.4-.8-6.6-11.4-13.8-23.5-7.2-12.1-13.4-22.7-13.8-23.5-.4-.8-1.6-2.9-2.7-4.5-1.1-1.7-2.6-4.4-3.4-6-2.2-4.3-8-14.2-12.4-21-.6-1.1-1.5-2.7-1.9-3.5-.4-.8-7.3-12.5-15.3-26s-14.9-25.2-15.3-26c-.4-.8-1.6-2.9-2.7-4.5-1.1-1.7-2.4-3.9-3-5-.6-1.1-1.9-3.4-3-5-1.1-1.7-2.3-3.7-2.7-4.5-.4-.8-6.6-11.4-13.8-23.5-7.2-12.1-13.4-22.7-13.8-23.5-.4-.8-1.6-2.9-2.7-4.5-1.1-1.7-2.4-3.9-2.9-5s-2.1-3.7-3.5-5.8c-1.4-2.1-2.6-3.9-2.6-4.1 0-.2-4-7.1-8.8-15.2-4.9-8.2-9.1-15.7-9.5-16.7-.3-.9-1.6-1.7-2.7-1.7s-2.3.8-2.7 1.7zM347 438.2c0 1.3-.7 4.5-1.5 7.2-2.1 6.9-2 31.4.1 41 3 13.2 9.6 28.3 16.8 38.5 7.4 10.5 22.6 24.7 31.6 29.7 1.9 1 4.2 2.4 5 3 4.4 3.1 21.8 9.2 30.3 10.5 18.4 2.9 19.9 2.9 39.4 0 8.4-1.3 25.9-7.3 30.3-10.5.8-.6 3.1-2 5-3 9-5 24.3-19.3 31.6-29.7 7.4-10.6 13.8-25.3 16.8-38.5 2.1-9.6 2.2-34.1.1-41-1.8-6-1.9-9.4-.2-9.4.6 0 4.1 1.4 7.7 3.1 3.6 1.7 8.1 3.9 10 4.7 1.9.9 5.1 2.6 7 3.8 1.9 1.1 6.7 3.8 10.5 5.9 3.9 2 7.7 4.3 8.5 5 .8.6 2.2 1.5 3 1.8 1.6.7 12.5 7.8 21.7 14.2 3.2 2.2 14.7 10.7 25.6 19 10.9 8.2 21.8 16.5 24.3 18.3 2.4 1.9 4.4 3.8 4.4 4.2 0 1.6-8.2 9.4-18.5 17.7-16 12.7-22.3 17.6-30.4 23.3-10.1 7.1-9.7 6.8-23.6 15.5-14.1 8.8-14.7 9.1-30.5 17-20.8 10.4-29.4 14-48.5 20.1-16.6 5.3-17.1 5.4-22.2 6.4-2.7.4-7.3 1.3-10.3 1.9-18.6 3.6-23.7 4.1-42 4.1s-23.4-.5-42-4.1c-3-.6-7.6-1.5-10.3-1.9-5.1-1-5.6-1.1-22.2-6.4-20-6.4-28-9.8-50.1-21.1-9-4.7-18.3-9.7-20.6-11.2-2.4-1.5-5.1-3.2-6-3.8-14-8.3-45-30.2-53.8-38.1-9.5-8.5-15.8-13.9-17.7-15.1-4.8-3.2-3.2-5 17.5-20.5 10.8-8.1 20.9-15.7 22.3-16.9 8-6.4 40.9-27.7 49.9-32.3.8-.4 7.4-3.8 14.5-7.6 14.5-7.5 16.5-8.1 16.5-4.8zM212.2 200.7l.3 52.8 23.5.3c12.9.1 24.5 0 25.8-.3l2.2-.5-.2-52.3-.3-52.2-25.8-.3-25.7-.2.2 52.7zM634.5 149.2c-.3.7-.4 24.2-.3 52.3l.3 51 25.8.3 25.7.2-.2-52.2-.3-52.3-25.3-.3c-19.7-.2-25.4 0-25.7 1zM40.3 207.3c-4.8 5.5-27.3 40.6-26.8 41.8.6 1.6 153.6 103.9 156.5 104.6 1.2.3 2.2-.3 3.2-2 .7-1.4 3.6-5.9 6.3-9.9 2.8-4 5.3-8 5.8-8.8.4-.8 3.8-6 7.6-11.5 5.4-7.8 6.7-10.3 5.8-11.4-1-1.2-14.7-10.9-17.2-12.1-.5-.3-10.4-6.8-21.8-14.5-11.5-7.7-21.6-14.5-22.5-15-.9-.6-3.3-2.2-5.3-3.8-2-1.5-4-2.7-4.4-2.7-.4 0-2.4-1.3-4.4-2.9-2-1.5-4-3-4.6-3.2-.5-.2-10.4-6.7-21.8-14.4-11.5-7.7-21.6-14.5-22.5-15-.9-.6-5-3.3-9-6-4.1-2.8-8.1-5.5-9-6-.9-.6-3.3-2.1-5.2-3.5-8.2-6-8.5-6.1-10.7-3.7zM834 220c-11.3 7.6-21.5 14.5-22.7 15.2-1.2.7-5.5 3.5-9.5 6.3-4 2.7-7.7 5.2-8.3 5.5-.5.3-10.4 6.8-21.8 14.5s-21.6 14.5-22.5 15c-.9.6-5 3.3-9 6-4.1 2.8-8.4 5.7-9.7 6.5-1.3.8-6.3 4.2-11.2 7.4-4.8 3.3-11.2 7.5-14.1 9.3-2.9 1.9-5.5 4-5.8 4.8-.8 2 26.4 42.5 28.6 42.5 1.7 0 151.8-99.4 155.3-102.9 1.7-1.7 1.3-2.5-11.5-21.7-13.6-20.4-15.1-22.4-16.5-22.3-.4 0-10 6.3-21.3 13.9zM54.8 412.1c-1.6.9-1.8 3.2-1.8 25.4 0 13.4.3 25 .6 25.9.5 1.4 6.1 1.6 52 1.6 49.7 0 51.4-.1 52.4-1.9 1.5-2.9 1.4-49.3-.2-50.9-1.6-1.6-100.4-1.7-103-.1zM739.7 412.7c-1 .9-.8 48.5.1 50.1.7 1 11.9 1.2 52.8 1l51.9-.3v-51l-52.1-.3c-28.6-.1-52.4.1-52.7.5z"/></g></svg>
